<svg width="20" height="20" viewBox="0 0 20 20" fill="none" xmlns="http://www.w3.org/2000/svg">
<path d="M14.1673 11.6663V16.6663M11.6673 14.1663H16.6673M5.00065 8.33301H6.66732C7.58779 8.33301 8.33398 7.58682 8.33398 6.66634V4.99967C8.33398 4.0792 7.58779 3.33301 6.66732 3.33301H5.00065C4.08018 3.33301 3.33398 4.0792 3.33398 4.99967V6.66634C3.33398 7.58682 4.08018 8.33301 5.00065 8.33301ZM13.334 8.33301H15.0007C15.9211 8.33301 16.6673 7.58682 16.6673 6.66634V4.99967C16.6673 4.0792 15.9211 3.33301 15.0007 3.33301H13.334C12.4135 3.33301 11.6673 4.0792 11.6673 4.99967V6.66634C11.6673 7.58682 12.4135 8.33301 13.334 8.33301ZM5.00065 16.6663H6.66732C7.58779 16.6663 8.33398 15.9201 8.33398 14.9997V13.333C8.33398 12.4125 7.58779 11.6663 6.66732 11.6663H5.00065C4.08018 11.6663 3.33398 12.4125 3.33398 13.333V14.9997C3.33398 15.9201 4.08018 16.6663 5.00065 16.6663Z" stroke="#64748B" stroke-width="1.5" stroke-linecap="round" stroke-linejoin="round"/>
</svg>
