<svg width="24" height="24" viewBox="0 0 24 24" fill="none" xmlns="http://www.w3.org/2000/svg">
<path fill-rule="evenodd" clip-rule="evenodd" d="M20.6984 11.8708C20.6984 11.2407 20.6418 10.6348 20.5368 10.0532H12.168V13.4904H16.9502C16.7442 14.6011 16.1181 15.5422 15.177 16.1723V18.4019H18.0488C19.729 16.8549 20.6984 14.5769 20.6984 11.8708Z" fill="#4285F4"/>
<path fill-rule="evenodd" clip-rule="evenodd" d="M12.1731 20.5544C14.5723 20.5544 16.5837 19.7588 18.0539 18.4017L15.1822 16.1721C14.3865 16.7053 13.3687 17.0203 12.1731 17.0203C9.85876 17.0203 7.89984 15.4572 7.20109 13.3569H4.23242V15.6592C5.69454 18.5632 8.69957 20.5544 12.1731 20.5544Z" fill="#34A853"/>
<path fill-rule="evenodd" clip-rule="evenodd" d="M7.19895 13.3566C7.02124 12.8234 6.92026 12.2539 6.92026 11.6683C6.92026 11.0826 7.02124 10.5131 7.19895 9.97997V7.67773H4.23028C3.62847 8.87732 3.28516 10.2344 3.28516 11.6683C3.28516 13.1021 3.62847 14.4592 4.23028 15.6588L7.19895 13.3566Z" fill="#FBBC05"/>
<path fill-rule="evenodd" clip-rule="evenodd" d="M12.1731 6.31685C13.4777 6.31685 14.649 6.76518 15.5699 7.64568L18.1185 5.09707C16.5797 3.66322 14.5682 2.78271 12.1731 2.78271C8.69956 2.78271 5.69454 4.77395 4.23242 7.67799L7.20109 9.98023C7.89984 7.87994 9.85876 6.31685 12.1731 6.31685Z" fill="#EA4335"/>
</svg>
