<svg width="20" height="20" viewBox="0 0 20 20" fill="none" xmlns="http://www.w3.org/2000/svg">
<path d="M7.5 15.8333V5L17.5 2.5V13.3333M7.5 15.8333C7.5 16.7538 6.38071 17.5 5 17.5C3.61929 17.5 2.5 16.7538 2.5 15.8333C2.5 14.9129 3.61929 14.1667 5 14.1667C6.38071 14.1667 7.5 14.9129 7.5 15.8333ZM17.5 13.3333C17.5 14.2538 16.3807 15 15 15C13.6193 15 12.5 14.2538 12.5 13.3333C12.5 12.4129 13.6193 11.6667 15 11.6667C16.3807 11.6667 17.5 12.4129 17.5 13.3333ZM7.5 8.33333L17.5 5.83333" stroke="#4F46E5" stroke-width="1.5" stroke-linecap="round" stroke-linejoin="round"/>
</svg>
