<svg width="20" height="20" viewBox="0 0 20 20" fill="none" xmlns="http://www.w3.org/2000/svg">
<path d="M14.1673 11.6668V16.6668M11.6673 14.1668H16.6673M5.00065 8.3335H6.66732C7.58779 8.3335 8.33398 7.5873 8.33398 6.66683V5.00016C8.33398 4.07969 7.58779 3.3335 6.66732 3.3335H5.00065C4.08018 3.3335 3.33398 4.07969 3.33398 5.00016V6.66683C3.33398 7.5873 4.08018 8.3335 5.00065 8.3335ZM13.334 8.3335H15.0007C15.9211 8.3335 16.6673 7.5873 16.6673 6.66683V5.00016C16.6673 4.07969 15.9211 3.3335 15.0007 3.3335H13.334C12.4135 3.3335 11.6673 4.07969 11.6673 5.00016V6.66683C11.6673 7.5873 12.4135 8.3335 13.334 8.3335ZM5.00065 16.6668H6.66732C7.58779 16.6668 8.33398 15.9206 8.33398 15.0002V13.3335C8.33398 12.413 7.58779 11.6668 6.66732 11.6668H5.00065C4.08018 11.6668 3.33398 12.413 3.33398 13.3335V15.0002C3.33398 15.9206 4.08018 16.6668 5.00065 16.6668Z" stroke="#4F46E5" stroke-width="1.5" stroke-linecap="round" stroke-linejoin="round"/>
</svg>
