<svg width="20" height="20" viewBox="0 0 20 20" fill="none" xmlns="http://www.w3.org/2000/svg">
<path d="M12.5007 14.1667H16.6673L15.4965 12.9959C15.179 12.6784 15.0007 12.2477 15.0007 11.7987V9.16667C15.0007 6.98964 13.6093 5.13757 11.6673 4.45118V4.16667C11.6673 3.24619 10.9211 2.5 10.0007 2.5C9.08018 2.5 8.33398 3.24619 8.33398 4.16667V4.45118C6.392 5.13757 5.00065 6.98964 5.00065 9.16667V11.7987C5.00065 12.2477 4.82227 12.6784 4.50476 12.9959L3.33398 14.1667H7.50065M12.5007 14.1667V15C12.5007 16.3807 11.3814 17.5 10.0007 17.5C8.61994 17.5 7.50065 16.3807 7.50065 15V14.1667M12.5007 14.1667H7.50065" stroke="#64748B" stroke-width="1.5" stroke-linecap="round" stroke-linejoin="round"/>
</svg>
