<svg width="28" height="28" viewBox="0 0 28 28" fill="none" xmlns="http://www.w3.org/2000/svg">
<path d="M3.5 5.83333C3.5 4.54467 4.54467 3.5 5.83333 3.5H9.65911C10.1613 3.5 10.6071 3.82134 10.7659 4.29773L12.5134 9.54008C12.697 10.0909 12.4476 10.6929 11.9283 10.9525L9.29484 12.2692C10.5808 15.1214 12.8786 17.4192 15.7308 18.7052L17.0475 16.0717C17.3071 15.5524 17.9091 15.303 18.4599 15.4866L23.7023 17.2341C24.1787 17.3929 24.5 17.8387 24.5 18.3409V22.1667C24.5 23.4553 23.4553 24.5 22.1667 24.5H21C11.335 24.5 3.5 16.665 3.5 7V5.83333Z" stroke="#A7AAAD" stroke-width="2.1" stroke-linecap="round" stroke-linejoin="round"/>
</svg>
