<svg width="13" height="12" viewBox="0 0 13 12" fill="none" xmlns="http://www.w3.org/2000/svg">
<path fill-rule="evenodd" clip-rule="evenodd" d="M6.5 0C6.86819 0 7.16667 0.298477 7.16667 0.666667V5.33333H11.8333C12.2015 5.33333 12.5 5.63181 12.5 6C12.5 6.36819 12.2015 6.66667 11.8333 6.66667H7.16667V11.3333C7.16667 11.7015 6.86819 12 6.5 12C6.13181 12 5.83333 11.7015 5.83333 11.3333V6.66667H1.16667C0.798477 6.66667 0.5 6.36819 0.5 6C0.5 5.63181 0.798477 5.33333 1.16667 5.33333H5.83333V0.666667C5.83333 0.298477 6.13181 0 6.5 0Z" fill="#9CA3AF"/>
</svg>
